<svg width="30" height="29" viewBox="0 0 30 29" fill="none" xmlns="http://www.w3.org/2000/svg">
<path d="M7 7.65861C7 9.27298 5.65685 10.5817 4 10.5817C2.34315 10.5817 1 9.27298 1 7.65861C1 6.04424 2.34315 4.73553 4 4.73553C5.65685 4.73553 7 6.04424 7 7.65861Z" stroke="#0A255E" stroke-width="2"/>
<path d="M6 24.2645H2C1.44772 24.2645 1 23.8283 1 23.2901V15.4117C1 15.2364 1.04847 15.066 1.13818 14.9175C1.22381 14.7757 1.36542 14.6808 1.50879 14.5979L2.77267 13.867C2.92358 13.7797 3.05768 13.6652 3.20586 13.5734C3.66401 13.2896 4.33599 13.2896 4.79414 13.5734C4.94232 13.6652 5.07642 13.7797 5.22733 13.867L6.49121 14.5979C6.63459 14.6808 6.77619 14.7757 6.86182 14.9175C6.95153 15.066 7 15.2364 7 15.4117V23.2901C7 23.8283 6.55228 24.2645 6 24.2645Z" stroke="#0A255E" stroke-width="2"/>
<path d="M19 5.13806C19 7.3472 17.2091 9.13806 15 9.13806C12.7909 9.13806 11 7.3472 11 5.13806C11 2.92892 12.7909 1.13806 15 1.13806C17.2091 1.13806 19 2.92892 19 5.13806Z" stroke="#0A255E" stroke-width="2"/>
<path d="M17.6667 27.8619H12.3333C11.597 27.8619 11 27.265 11 26.5286V15.7475C11 15.3939 11.1405 15.0548 11.3905 14.8047L14.0572 12.6381C14.5779 12.1174 15.4221 12.1174 15.9428 12.6381L18.6095 14.8047C18.8595 15.0548 19 15.3939 19 15.7475V26.5286C19 27.265 18.403 27.8619 17.6667 27.8619Z" stroke="#0A255E" stroke-width="2"/>
<path d="M29 7.65861C29 9.27298 27.6569 10.5817 26 10.5817C24.3431 10.5817 23 9.27298 23 7.65861C23 6.04424 24.3431 4.73553 26 4.73553C27.6569 4.73553 29 6.04424 29 7.65861Z" stroke="#0A255E" stroke-width="2"/>
<path d="M28 24.2645H24C23.4477 24.2645 23 23.8283 23 23.2901V15.4117C23 15.2364 23.0485 15.066 23.1382 14.9175C23.2238 14.7757 23.3654 14.6808 23.5088 14.5979L24.7727 13.867C24.9236 13.7797 25.0577 13.6652 25.2059 13.5734C25.664 13.2896 26.336 13.2896 26.7941 13.5734C26.9423 13.6652 27.0764 13.7797 27.2273 13.867L28.4912 14.5979C28.6346 14.6808 28.7762 14.7757 28.8618 14.9175C28.9515 15.066 29 15.2364 29 15.4117V23.2901C29 23.8283 28.5523 24.2645 28 24.2645Z" stroke="#0A255E" stroke-width="2"/>
</svg>
